<?xml version="1.0" encoding="UTF-8" standalone="no"?>
<!-- Created with Keyshape -->
<svg xmlns="http://www.w3.org/2000/svg" viewBox="0 0 1089.94 1089.94" clip-rule="evenodd" fill-rule="evenodd" stroke-linejoin="round" stroke-miterlimit="2" height="1089.94" width="1089.94" style="white-space: preserve-spaces;">
    <defs>
        <linearGradient id="Gradient-0" x1="0" y1="544.97" x2="3270" y2="544.97" gradientUnits="userSpaceOnUse">
            <stop offset="0" stop-color="#fd0be8"/>
            <stop offset="0.33279" stop-color="#fd0b54"/>
            <stop offset="0.654053" stop-color="#fd0be8"/>
            <stop offset="1" stop-color="#fd0b54"/>
        </linearGradient>
        <mask id="Mask-1">
            <path d="M2209.38,858.306L2209.38,1403.28C2209.38,1553.66,2087.28,1675.76,1936.89,1675.76L1391.92,1675.76C1241.53,1675.76,1119.43,1553.66,1119.43,1403.28L1119.43,858.306C1119.43,707.917,1241.53,585.82,1391.92,585.82L1936.89,585.82C2087.28,585.82,2209.38,707.917,2209.38,858.306Z" fill="#ffffff" clip-rule="evenodd" fill-rule="evenodd" stroke-linejoin="round" stroke-miterlimit="2" transform="translate(544.98,544.97) translate(-1664.41,-1130.79)" style="animation: 8s linear infinite both a1_t;"/>
        </mask>
    </defs>
    <style>
@keyframes a0_t { 0% { transform: translate(0px,0px); } 100% { transform: translate(-2179.88px,0px); } }
@keyframes a1_t { 0% { transform: translate(-1119.43px,-585.82px); } 100% { transform: translate(1060.45px,-585.82px); } }
@keyframes large_star_t { 0% { transform: translate(899.71px,347.685px) scale(0.9,0.9); animation-timing-function: cubic-bezier(0.42,0,0.58,1); } 20% { transform: translate(899.71px,347.685px) scale(1.1,1.1); animation-timing-function: cubic-bezier(0.42,0,0.58,1); } 40% { transform: translate(899.71px,347.685px) scale(0.9,0.9); } 60% { transform: translate(899.71px,347.685px) scale(0.9,0.9); animation-timing-function: cubic-bezier(0.42,0,0.58,1); } 80% { transform: translate(899.71px,347.685px) scale(1.1,1.1); animation-timing-function: cubic-bezier(0.42,0,0.58,1); } 100% { transform: translate(899.71px,347.685px) scale(0.9,0.9); } }
@keyframes a2_t { 0% { transform: translate(601.57px,317.525px) scale(0.9,0.9); animation-timing-function: cubic-bezier(0.42,0,0.58,1); } 19.0476% { transform: translate(601.57px,317.525px) scale(1.1,1.1); animation-timing-function: cubic-bezier(0.42,0,0.58,1); } 38.0952% { transform: translate(601.57px,317.525px) scale(0.9,0.9); } 52.3809% { transform: translate(601.57px,317.525px) scale(0.9,0.9); animation-timing-function: cubic-bezier(0.42,0,0.58,1); } 76.1904% { transform: translate(601.57px,317.525px) scale(1.1,1.1); animation-timing-function: cubic-bezier(0.42,0,0.58,1); } 100% { transform: translate(601.57px,317.525px) scale(0.9,0.9); } }
@keyframes a3_t { 0% { transform: translate(462.61px,193.105px) scale(0.9,0.9); animation-timing-function: cubic-bezier(0.42,0,0.58,1); } 22.7272% { transform: translate(462.61px,193.105px) scale(1.1,1.1); animation-timing-function: cubic-bezier(0.42,0,0.58,1); } 45.4545% { transform: translate(462.61px,193.105px) scale(0.9,0.9); animation-timing-function: cubic-bezier(0.42,0,0.58,1); } 68.1818% { transform: translate(462.61px,193.105px) scale(1.1,1.1); animation-timing-function: cubic-bezier(0.42,0,0.58,1); } 90.909% { transform: translate(462.61px,193.105px) scale(0.9,0.9); } 100% { transform: translate(462.61px,193.105px) scale(0.9,0.9); } }
@keyframes a4_t { 0% { transform: translate(437.41px,376.305px) scale(0.9,0.9); animation-timing-function: cubic-bezier(0.42,0,0.58,1); } 21.7391% { transform: translate(437.41px,376.305px) scale(1.1,1.1); animation-timing-function: cubic-bezier(0.42,0,0.58,1); } 43.4782% { transform: translate(437.41px,376.305px) scale(0.9,0.9); } 56.5217% { transform: translate(437.41px,376.305px) scale(0.9,0.9); animation-timing-function: cubic-bezier(0.42,0,0.58,1); } 78.2608% { transform: translate(437.41px,376.305px) scale(1.1,1.1); animation-timing-function: cubic-bezier(0.42,0,0.58,1); } 100% { transform: translate(437.41px,376.305px) scale(0.9,0.9); } }
@keyframes medium_star1_t { 0% { transform: translate(749.294px,217.498px) scale(0.9,0.9); animation-timing-function: cubic-bezier(0.42,0,0.58,1); } 19.2307% { transform: translate(749.294px,217.498px) scale(1.1,1.1); animation-timing-function: cubic-bezier(0.42,0,0.58,1); } 38.4615% { transform: translate(749.294px,217.498px) scale(0.9,0.9); animation-timing-function: cubic-bezier(0.42,0,0.58,1); } 57.6923% { transform: translate(749.294px,217.498px) scale(1.1,1.1); animation-timing-function: cubic-bezier(0.42,0,0.58,1); } 76.923% { transform: translate(749.294px,217.498px) scale(0.9,0.9); } 100% { transform: translate(749.294px,217.498px) scale(0.9,0.9); } }
@keyframes medium_star0_t { 0% { transform: translate(261.28px,285.473px) scale(0.9,0.9); animation-timing-function: cubic-bezier(0.42,0,0.58,1); } 20% { transform: translate(261.28px,285.473px) scale(1.1,1.1); animation-timing-function: cubic-bezier(0.42,0,0.58,1); } 40% { transform: translate(261.28px,285.473px) scale(0.9,0.9); } 60% { transform: translate(261.28px,285.473px) scale(0.9,0.9); animation-timing-function: cubic-bezier(0.42,0,0.58,1); } 80% { transform: translate(261.28px,285.473px) scale(1.1,1.1); animation-timing-function: cubic-bezier(0.42,0,0.58,1); } 100% { transform: translate(261.28px,285.473px) scale(0.9,0.9); } }
    </style>
    <rect width="3269.94" height="1089.94" rx="0" fill="url(#Gradient-0)" stroke="none" stroke-linejoin="round" stroke-miterlimit="2" mask="url(#Mask-1)" transform="translate(960.49,342.895) translate(-960.49,-342.895)" style="mix-blend-mode: normal; animation: 8s linear infinite both a0_t;"/>
    <path d="M74.6422,28.7923C66.8262,40.1675,55.7165,49.2306,41.3233,55.9817C26.9251,62.7362,11.5549,66.1135,-4.7974,66.1135C-22.9224,66.1135,-39.3653,62.8236,-54.116,56.2506C-68.8668,49.6742,-81.5729,40.5203,-92.2353,28.7923C-102.898,17.061,-111.163,3.28988,-117.027,-12.5278C-122.892,-28.3454,-125.824,-45.4938,-125.824,-63.9762C-125.824,-82.1059,-122.892,-99.0761,-117.027,-114.894C-111.163,-130.711,-102.898,-144.486,-92.2353,-156.214C-81.5729,-167.945,-68.7761,-177.186,-53.8491,-183.938C-38.917,-190.692,-22.5698,-194.069,-4.7974,-194.069C13.3326,-194.069,29.5035,-190.514,43.7205,-183.407C57.9374,-176.296,68.5989,-167.589,75.7099,-157.283C75.7099,-180.386,84.0648,-191.935,100.77,-191.935C117.474,-191.935,125.824,-182.16,125.824,-162.612L125.824,165.28C125.824,184.475,117.298,194.069,100.236,194.069C83.1734,194.069,74.6422,184.475,74.6422,165.28L74.6422,28.7923ZM0.535842,14.9305C11.1973,14.9305,21.063,12.7966,30.123,8.53218C39.188,4.26777,47.0091,-1.42147,53.5862,-8.52882C60.1583,-15.6395,65.3153,-23.9903,69.0471,-33.5877C72.7788,-43.1851,74.6422,-53.3135,74.6422,-63.9762C74.6422,-74.9952,72.7788,-85.305,69.0471,-94.9025C65.3153,-104.497,60.1583,-112.851,53.5862,-119.958C47.0091,-127.069,39.188,-132.667,30.123,-136.754C21.063,-140.84,11.1973,-142.886,0.535842,-142.886C-10.4832,-142.886,-20.5252,-140.84,-29.5902,-136.754C-38.6501,-132.667,-46.4712,-127.069,-53.0484,-119.958C-59.6255,-112.851,-64.7775,-104.497,-68.5092,-94.9025C-72.241,-85.305,-74.1094,-74.9952,-74.1094,-63.9762C-74.1094,-53.3135,-72.241,-43.1851,-68.5092,-33.5877C-64.7775,-23.9903,-59.6255,-15.6395,-53.0484,-8.52882C-46.4712,-1.42147,-38.6501,4.26777,-29.5902,8.53218C-20.5252,12.7966,-10.4832,14.9305,0.535842,14.9305Z" fill="white" fill-rule="nonzero" stroke-width="0.419828" stroke-dashoffset="0" stroke-dasharray="none" filter="none" transform="translate(220.19,693.795)"/>
    <path d="M90.9043,122.362C81.663,122.362,75.1765,119.694,71.4448,114.365C67.713,109.031,65.4921,100.856,64.777,89.84C59.4488,100.503,49.7593,109.744,35.7236,117.564C21.683,125.383,5.7739,129.292,-11.9985,129.292C-26.568,129.292,-40.0748,126.805,-52.514,121.828C-64.9583,116.851,-75.796,109.566,-85.0372,99.9683C-94.2785,90.3709,-101.48,78.2867,-106.632,63.7125C-111.784,49.1415,-114.363,32.2553,-114.363,13.0637L-114.363,-101.034C-114.363,-110.631,-112.142,-117.738,-107.7,-122.359C-103.253,-126.98,-96.9476,-129.292,-88.769,-129.292C-71.7117,-129.292,-63.1805,-120.047,-63.1805,-101.565L-63.1805,10.9299C-63.1805,33.6801,-57.4041,50.9159,-45.8513,62.6472C-34.2984,74.3752,-18.9282,80.2425,0.264396,80.2425C20.1721,80.2425,35.5423,73.9316,46.3851,61.3131C57.2278,48.698,62.6467,30.6591,62.6467,7.19976L62.6467,-101.565C62.6467,-110.806,65.0439,-117.738,69.8433,-122.359C74.6427,-126.98,81.1292,-129.292,89.3028,-129.292C106.008,-129.292,114.363,-120.225,114.363,-102.099L114.363,95.7039C114.363,103.88,112.494,110.366,108.762,115.164C105.031,119.963,99.0779,122.362,90.9043,122.362Z" fill="white" fill-rule="nonzero" stroke-width="0.419828" stroke-dashoffset="0" stroke-dasharray="none" filter="none" transform="translate(514.76,631.675)"/>
    <path d="M64.7795,-106.363C67.2673,-103.52,69.4882,-99.965,71.4423,-95.7006C73.4013,-91.4362,74.3783,-86.2812,74.3783,-80.2391C74.3783,-72.0632,71.9761,-66.1118,67.1817,-62.3784C62.3823,-58.6449,56.9584,-56.7798,50.9201,-56.7798C45.9394,-56.7798,41.4975,-57.8451,37.5895,-59.979C33.6815,-62.1129,30.3023,-65.6649,27.4569,-70.6417C24.969,-74.9061,21.4186,-78.9958,16.7954,-82.904C12.1723,-86.8155,5.95268,-88.7713,-1.86336,-88.7713C-8.97435,-88.7713,-14.6601,-86.6374,-18.9257,-82.373C-23.1913,-78.1053,-25.3266,-72.7756,-25.3266,-66.3773C-25.3266,-58.2013,-22.9244,-51.6249,-18.125,-46.6514C-13.3255,-41.6746,-7.73043,-37.7631,-1.32953,-34.9201C9.33191,-29.9433,19.3739,-25.3227,28.7914,-21.0583C38.209,-16.7938,46.4732,-12.1732,53.5842,-7.1964C63.5356,-0.441899,71.266,7.55597,76.7755,16.7972C82.285,26.0384,85.0398,38.6536,85.0398,54.6493C85.0398,66.7335,82.8188,77.5743,78.377,87.1718C73.9351,96.7692,67.8011,104.854,59.9801,111.431C52.164,118.007,43.1846,123.071,33.057,126.627C22.9244,130.182,12.1723,131.956,0.800741,131.956C-9.8607,131.956,-20.2603,130.535,-30.3879,127.692C-40.5205,124.849,-49.6712,120.85,-57.8448,115.695C-66.0234,110.544,-72.5955,104.323,-77.5762,97.0347C-82.5519,89.7492,-85.0398,81.4859,-85.0398,72.2446C-85.0398,65.1339,-82.9044,59.3607,-78.6389,54.9182C-74.3733,50.4723,-68.8638,48.251,-62.1103,48.251C-54.6468,48.251,-48.8704,50.2068,-44.7861,54.115C-40.6968,58.0266,-37.232,62.4691,-34.3866,67.4459C-26.923,79.8863,-14.4839,86.1065,2.93605,86.1065C10.7521,86.1065,17.9487,83.4417,24.5259,78.1086C31.103,72.7756,34.3916,65.8463,34.3916,57.3142C34.3916,51.6283,32.9664,46.4733,30.126,41.8527C27.2806,37.2321,22.3049,32.4334,15.1939,27.4599C7.3779,22.1269,-1.15327,17.6844,-10.3945,14.129C-19.6358,10.577,-29.5871,5.24398,-40.2536,-1.86337C-50.9151,-8.97408,-59.3556,-17.3248,-65.5752,-26.9222C-71.7998,-36.5197,-74.9071,-48.9601,-74.9071,-64.2434C-74.9071,-76.3276,-72.5955,-86.6374,-67.9774,-95.1663C-63.3543,-103.698,-57.4016,-110.718,-50.1143,-116.226C-42.8271,-121.737,-34.6535,-125.736,-25.5885,-128.223C-16.5285,-130.713,-7.73043,-131.956,0.800741,-131.956C14.3076,-131.956,26.5705,-129.913,37.5895,-125.824C48.6085,-121.737,57.6735,-115.252,64.7795,-106.363Z" fill="white" fill-rule="nonzero" stroke-width="0.419828" stroke-dashoffset="0" stroke-dasharray="none" filter="none" transform="translate(748.82,628.485)"/>
    <path d="M25.8579,99.1669C25.8579,117.293,17.1505,126.36,-0.264396,126.36C-17.3267,126.36,-25.8579,117.293,-25.8579,99.1669L-25.8579,-97.5673C-25.8579,-116.762,-17.503,-126.36,-0.798223,-126.36C16.9742,-126.36,25.8579,-116.762,25.8579,-97.5673L25.8579,99.1669Z" fill="white" fill-rule="nonzero" stroke-width="0.419828" stroke-dashoffset="0" stroke-dasharray="none" filter="none" transform="translate(899.7,629.285)"/>
    <path id="large_star" d="M-5.145,-117.883C-4.485,-120.18,-2.395,-121.765,-0.005,-121.765C2.385,-121.765,4.485,-120.18,5.135,-117.883L24.445,-49.9655C26.175,-43.8915,29.425,-38.3595,33.895,-33.8945C38.355,-29.4285,43.885,-26.1785,49.965,-24.4515L117.885,-5.1395C120.175,-4.4865,121.765,-2.3885,121.765,-0.0005C121.765,2.3875,120.175,4.4855,117.885,5.1385L49.965,24.4505C43.885,26.1775,38.355,29.4275,33.895,33.8925C29.425,38.3575,26.175,43.8895,24.445,49.9635L5.135,117.885C4.485,120.175,2.385,121.765,-0.005,121.765C-2.395,121.765,-4.485,120.175,-5.145,117.885L-24.455,49.9635C-26.185,43.8895,-29.435,38.3575,-33.895,33.8925C-38.365,29.4275,-43.895,26.1775,-49.965,24.4505L-117.885,5.1385C-120.185,4.4855,-121.765,2.3875,-121.765,-0.0005C-121.765,-2.3885,-120.185,-4.4865,-117.885,-5.1395L-49.965,-24.4515C-43.895,-26.1785,-38.365,-29.4285,-33.895,-33.8945C-29.435,-38.3595,-26.185,-43.8915,-24.455,-49.9655L-5.145,-117.883Z" fill="white" stroke-width="1" stroke-dashoffset="0" stroke-dasharray="none" filter="none" transform="translate(899.71,347.685) scale(0.9,0.9)" style="animation: 5s linear infinite both large_star_t;"/>
    <path d="M-2.62862,-60.2274C-2.29142,-61.4009,-1.22363,-62.2107,-0.00255454,-62.2107C1.21852,-62.2107,2.29142,-61.4009,2.62351,-60.2274L12.4892,-25.5277C13.373,-22.4244,15.0335,-19.5981,17.3172,-17.3169C19.5959,-15.0352,22.4212,-13.3748,25.5275,-12.4924L60.2284,-2.6258C61.3984,-2.29218,62.2108,-1.2203,62.2108,-0.000255453C62.2108,1.21979,61.3984,2.29167,60.2284,2.62529L25.5275,12.4919C22.4212,13.3742,19.5959,15.0347,17.3172,17.3159C15.0335,19.5971,13.373,22.4234,12.4892,25.5267L2.62351,60.2284C2.29142,61.3984,1.21852,62.2107,-0.00255454,62.2107C-1.22363,62.2107,-2.29142,61.3984,-2.62862,60.2284L-12.4943,25.5267C-13.3781,22.4234,-15.0386,19.5971,-17.3172,17.3159C-19.601,15.0347,-22.4263,13.3742,-25.5275,12.4919L-60.2284,2.62529C-61.4035,2.29167,-62.2108,1.21979,-62.2108,-0.000255453C-62.2108,-1.2203,-61.4035,-2.29218,-60.2284,-2.6258L-25.5275,-12.4924C-22.4263,-13.3748,-19.601,-15.0352,-17.3172,-17.3169C-15.0386,-19.5981,-13.3781,-22.4244,-12.4943,-25.5277L-2.62862,-60.2274Z" fill="white" stroke-width="0.510907" stroke-dashoffset="0" stroke-dasharray="none" filter="none" transform="translate(601.57,317.525) scale(0.9,0.9)" style="animation: 2.1s linear infinite both a2_t;"/>
    <path d="M-2.62862,-60.2274C-2.29142,-61.4009,-1.22363,-62.2107,-0.00255454,-62.2107C1.21852,-62.2107,2.29142,-61.4009,2.62351,-60.2274L12.4892,-25.5277C13.373,-22.4244,15.0335,-19.5981,17.3172,-17.3169C19.5959,-15.0352,22.4212,-13.3748,25.5275,-12.4924L60.2284,-2.6258C61.3984,-2.29218,62.2108,-1.2203,62.2108,-0.000255453C62.2108,1.21979,61.3984,2.29167,60.2284,2.62529L25.5275,12.4919C22.4212,13.3742,19.5959,15.0347,17.3172,17.3159C15.0335,19.5971,13.373,22.4234,12.4892,25.5267L2.62351,60.2284C2.29142,61.3984,1.21852,62.2107,-0.00255454,62.2107C-1.22363,62.2107,-2.29142,61.3984,-2.62862,60.2284L-12.4943,25.5267C-13.3781,22.4234,-15.0386,19.5971,-17.3172,17.3159C-19.601,15.0347,-22.4263,13.3742,-25.5275,12.4919L-60.2284,2.62529C-61.4035,2.29167,-62.2108,1.21979,-62.2108,-0.000255453C-62.2108,-1.2203,-61.4035,-2.29218,-60.2284,-2.6258L-25.5275,-12.4924C-22.4263,-13.3748,-19.601,-15.0352,-17.3172,-17.3169C-15.0386,-19.5981,-13.3781,-22.4244,-12.4943,-25.5277L-2.62862,-60.2274Z" fill="white" stroke-width="0.510907" stroke-dashoffset="0" stroke-dasharray="none" filter="none" transform="translate(462.61,193.105) scale(0.9,0.9)" style="animation: 2.2s linear infinite both a3_t;"/>
    <path d="M-2.62862,-60.2274C-2.29142,-61.4009,-1.22363,-62.2107,-0.00255454,-62.2107C1.21852,-62.2107,2.29142,-61.4009,2.62351,-60.2274L12.4892,-25.5277C13.373,-22.4244,15.0335,-19.5981,17.3172,-17.3169C19.5959,-15.0352,22.4212,-13.3748,25.5275,-12.4924L60.2284,-2.6258C61.3984,-2.29218,62.2108,-1.2203,62.2108,-0.000255453C62.2108,1.21979,61.3984,2.29167,60.2284,2.62529L25.5275,12.4919C22.4212,13.3742,19.5959,15.0347,17.3172,17.3159C15.0335,19.5971,13.373,22.4234,12.4892,25.5267L2.62351,60.2284C2.29142,61.3984,1.21852,62.2107,-0.00255454,62.2107C-1.22363,62.2107,-2.29142,61.3984,-2.62862,60.2284L-12.4943,25.5267C-13.3781,22.4234,-15.0386,19.5971,-17.3172,17.3159C-19.601,15.0347,-22.4263,13.3742,-25.5275,12.4919L-60.2284,2.62529C-61.4035,2.29167,-62.2108,1.21979,-62.2108,-0.000255453C-62.2108,-1.2203,-61.4035,-2.29218,-60.2284,-2.6258L-25.5275,-12.4924C-22.4263,-13.3748,-19.601,-15.0352,-17.3172,-17.3169C-15.0386,-19.5981,-13.3781,-22.4244,-12.4943,-25.5277L-2.62862,-60.2274Z" fill="white" stroke-width="0.510907" stroke-dashoffset="0" stroke-dasharray="none" filter="none" transform="translate(437.41,376.305) scale(0.9,0.9)" style="animation: 2.3s linear infinite both a4_t;"/>
    <path id="medium_star1" d="M-6.17735,-84.5464C-5.71807,-86.1939,-4.26369,-87.3307,-2.60055,-87.3307C-0.937405,-87.3307,0.523935,-86.1939,0.976261,-84.5464L14.4137,-35.8355C15.6176,-31.4791,17.879,-27.5116,20.9896,-24.3093C24.0933,-21.1062,27.9415,-18.7753,32.1724,-17.5367L79.4363,-3.68607C81.0299,-3.21773,82.1363,-1.71304,82.1363,-0.000358602C82.1363,1.71233,81.0299,3.21702,79.4363,3.68535L32.1724,17.536C27.9415,18.7746,24.0933,21.1055,20.9896,24.3078C17.879,27.5101,15.6176,31.4777,14.4137,35.834L0.976261,84.5479C0.523935,86.1904,-0.937405,87.3307,-2.60055,87.3307C-4.26369,87.3307,-5.71807,86.1904,-6.17735,84.5479L-19.6147,35.834C-20.8186,31.4777,-23.0802,27.5101,-26.1837,24.3078C-29.2943,21.1055,-33.1426,18.7746,-37.3665,17.536L-84.6305,3.68535C-86.2309,3.21702,-87.3304,1.71233,-87.3304,-0.000358602C-87.3304,-1.71304,-86.2309,-3.21773,-84.6305,-3.68607L-37.3665,-17.5367C-33.1426,-18.7753,-29.2943,-21.1062,-26.1837,-24.3093C-23.0802,-27.5116,-20.8186,-31.4791,-19.6147,-35.8355L-6.17735,-84.5464Z" fill="white" stroke-width="0.582776" stroke-dashoffset="0" stroke-dasharray="none" filter="none" transform="translate(749.294,217.498) scale(0.9,0.9)" style="animation: 2.6s linear infinite both medium_star1_t;"/>
    <path id="medium_star0" d="M-3.58025,-82.0314C-3.12097,-83.6298,-1.66661,-84.7328,-0.00347935,-84.7328C1.65965,-84.7328,3.12097,-83.6298,3.57329,-82.0314L17.0105,-34.7694C18.2144,-30.5427,20.476,-26.6932,23.5865,-23.5861C26.6901,-20.4784,30.5382,-18.2168,34.7691,-17.015L82.0326,-3.57642C83.6261,-3.12201,84.7326,-1.66208,84.7326,-0.000347934C84.7326,1.66139,83.6261,3.12132,82.0326,3.57572L34.7691,17.0143C30.5382,18.2161,26.6901,20.4777,23.5865,23.5847C20.476,26.6918,18.2144,30.5413,17.0105,34.768L3.57329,82.0328C3.12097,83.6264,1.65965,84.7328,-0.00347935,84.7328C-1.66661,84.7328,-3.12097,83.6264,-3.58025,82.0328L-17.0175,34.768C-18.2213,30.5413,-20.4829,26.6918,-23.5865,23.5847C-26.697,20.4777,-30.5452,18.2161,-34.7691,17.0143L-82.0326,3.57572C-83.6331,3.12132,-84.7326,1.66139,-84.7326,-0.000347934C-84.7326,-1.66208,-83.6331,-3.12201,-82.0326,-3.57642L-34.7691,-17.015C-30.5452,-18.2168,-26.697,-20.4784,-23.5865,-23.5861C-20.4829,-26.6932,-18.2213,-30.5427,-17.0175,-34.7694L-3.58025,-82.0314Z" fill="white" stroke-width="0.695869" stroke-dashoffset="0" stroke-dasharray="none" filter="none" transform="translate(261.28,285.473) scale(0.9,0.9)" style="animation: 2.5s linear infinite both medium_star0_t;"/>
</svg>
